<?xml version="1.0" encoding="UTF-8"?>
<svg id="Calque_2" data-name="Calque 2" xmlns="http://www.w3.org/2000/svg" viewBox="0 0 108.78 85.92">
  <defs>
    <style>
      .cls-1 {
        fill: #e96211;
      }

      .cls-1, .cls-2, .cls-3 {
        stroke-width: 0px;
      }

      .cls-4 {
        fill: none;
        stroke: #ea6112;
        stroke-miterlimit: 10;
      }

      .cls-3 {
        fill: #1d1d1b;
      }
    </style>
  </defs>
  <g id="Calque_1-2" data-name="Calque 1">
    <path class="cls-3" d="M64.34,52.51v.03s-.01-.01-.01-.01h.01Z"/>
    <path class="cls-3" d="M64.37,52.55l-.03.03v-.04s.01.01.03.01Z"/>
    <path class="cls-3" d="M85.25,22.81c-.27-.35-.61-.57-1.04-.71v-2.08c1.95.35,3.75,2.48,3.75,5.06,0,1.56-.88,2.21-1.91,2.21-1.14,0-1.93-.83-1.93-1.91,0-.72.37-1.32.93-1.64.33-.19.43-.63.2-.93Z"/>
    <path class="cls-3" d="M95.72,51.21c-.58,2.51-2.19,7.22-6.47,10.61-5.34,4.24-12.94,5.08-20.1,2.29-.02,0-.02,0-.04-.02-2.14-.98-4.74-1.92-7.68-2.52.38-3,.47-6.02.25-9.04h.07l-1.4-25.77-6.96.38.79,14.51c.19,3.54-2.09,6.02-5.68,6.22-3.37.19-5.75-2-5.94-5.48l-.79-14.62-6.96.37.91,16.72c.34,6.32,4.69,10.22,10.85,9.88,3.33-.18,6.04-1.64,7.92-4.19.47,3.46.47,6.92.02,10.34-1.72.02-3.51.19-5.36.53-7.27,1.38-15.52,5.52-17.53,11.67-.26.78-1.04,3.17-.21,5.98.92,3.12,3.41,5.23,5.26,6.08,1.12.52,2.34.76,3.61.76,6.55,0,14.48-6.33,18.16-13.42.74-1.42,1.26-2.78,1.66-4.09,1.84.39,3.51.93,4.98,1.53.41.16.81.33,1.19.51.02.02.05.02.08.03.22.09.44.18.66.26,3.49,1.32,7.07,1.97,10.57,1.97,5.88,0,11.5-1.84,16.02-5.42,5.94-4.71,8.14-11.1,8.92-14.49l-6.78-1.57ZM52.24,69.3c-3.51,6.79-10.56,10.51-12.68,9.54-.46-.21-1.25-.91-1.49-1.74-.22-.73.02-1.47.15-1.84.88-2.71,6.47-5.91,12.21-6.99.83-.16,1.64-.26,2.44-.33-.18.45-.39.9-.63,1.36Z"/>
    <path class="cls-3" d="M87.19,49.86c-2.19,4.12-6.92,5.2-9,5.68-.77.18-1.99.4-3.51.4-4.83,0-8.67-2.23-10.32-3.39-.01,0-.01-.01-.03-.01v-.03c-.09-2.39-.18-4.77-.27-7.16.97.82,2.49,1.93,4.56,2.81,1.77.76,4.67,1.63,8.15,1.29,1.97-.19,4.32-.43,5.59-2.22.16-.22,1.2-1.68.66-3.1-.37-.97-1.28-1.43-1.52-1.55-.9-.45-1.63-.31-4.02-.1-.4.03-.91.08-1.51.12-1.37.1-2.75-.05-4.04-.51-.01,0-.03,0-.04-.01-3.52-1.27-5.79-3.28-6.73-6.02-1.32-3.77-.08-9.02,4.23-11.27,3.3-1.73,7.47-1.14,10.38,1.43l-4.15,4.69c-.97-.88-2.32-1.1-3.34-.57-1.39.72-1.54,2.54-1.21,3.66.45,1.52,1.91,2.17,2.33,2.36.71.32,1.32.37,1.78.4,2.96.21,4.47,0,5.84.09.42.03,3.06.25,4.85,1.74,2.82,2.35,3.26,7.62,1.33,11.27Z"/>
    <path class="cls-3" d="M33.01,48.7l-.03,6.69h-1.96c-3.82-.03-6.26-1.47-7.25-4.29-2.14,3.02-5.39,4.86-9.31,4.84-7.54-.03-13.19-6.17-13.16-14.23.04-8.07,5.75-14.15,13.29-14.12,3.66.02,6.68,1.62,8.79,4.24l.07-14.71,6.9.03-.13,29.25c0,1.43.79,2.29,2.27,2.29h.53ZM23.33,41.81c.02-4.25-3.15-7.5-7.45-7.52-4.25-.02-7.45,3.2-7.47,7.45-.02,4.25,3.15,7.5,7.4,7.52,4.3.02,7.5-3.2,7.52-7.45Z"/>
    <circle class="cls-4" cx="6.33" cy="37.51" r="5.82"/>
    <circle class="cls-4" cx="20.95" cy="39.09" r="5.82"/>
    <ellipse class="cls-2" cx="6.68" cy="39.86" rx=".64" ry="1.23" transform="translate(-2.1 .41) rotate(-3.04)"/>
    <ellipse class="cls-3" cx="19.26" cy="40.6" rx=".64" ry="1.23" transform="translate(-2.12 1.08) rotate(-3.04)"/>
    <path class="cls-3" d="M82.92,0l2.07.21-1.73,14.01-2.07-.21,1.73-14.01Z"/>
    <path class="cls-3" d="M89.09,16.52c-.92-.5-1.61-1.11-2.07-1.84-.46-.73-.7-1.51-.71-2.35-.02-.84.2-1.67.65-2.5.43-.79,1.02-1.4,1.78-1.83.76-.43,1.58-.65,2.46-.68.88-.02,1.74.19,2.57.64,1.06.57,1.78,1.36,2.14,2.36.36,1,.38,2.11.05,3.34l-7.91-1.26.15-1.3,6.5.93-.52.07c.08-.51.02-1.02-.18-1.53-.19-.51-.58-.92-1.17-1.23-.49-.27-.99-.39-1.5-.36-.51.03-.98.18-1.42.47-.44.29-.81.71-1.1,1.25-.29.54-.44,1.09-.45,1.64,0,.55.13,1.06.41,1.52.28.46.68.83,1.2,1.11.35.19.72.31,1.12.36.4.05.81.05,1.22,0l.09,1.78c-.55.05-1.12.03-1.71-.07-.59-.1-1.12-.28-1.6-.54Z"/>
    <path class="cls-3" d="M95.56,22.54c-.44-.73-.68-1.49-.73-2.28-.05-.79.13-1.55.53-2.27s1.04-1.35,1.92-1.88c.88-.53,1.75-.8,2.6-.82.85-.01,1.63.19,2.35.6.71.41,1.29.99,1.73,1.72.44.73.65,1.45.62,2.17-.03.71-.19,1.33-.49,1.86l-.35.06,1.75-.82.98,1.63-7.84,4.72-1.06-1.76,2.04-1.23-.33.48c-.16.01-.4,0-.7-.07-.3-.06-.64-.16-1-.31s-.72-.37-1.08-.65c-.35-.29-.67-.66-.95-1.13ZM97.3,22.14c.27.44.59.79.96,1.04.38.25.79.41,1.23.46.44.05.89,0,1.35-.16l1.53-.92c.32-.33.54-.7.67-1.13.13-.42.17-.86.12-1.31-.05-.45-.21-.88-.46-1.3-.29-.48-.67-.85-1.13-1.1-.46-.25-.97-.38-1.51-.37-.54.01-1.09.18-1.63.51-.5.3-.89.7-1.17,1.19-.27.49-.41,1.01-.4,1.56,0,.55.15,1.05.43,1.52Z"/>
    <path class="cls-3" d="M108.04,30.21l-2.62.45.37-.12c.56.18,1.07.47,1.5.88.44.4.78.84,1.04,1.32.25.48.4.89.45,1.24l-2.08.11c0-.71-.2-1.31-.56-1.8-.37-.49-.82-.86-1.35-1.11-.53-.25-1.09-.35-1.68-.29l-4.16.4-.2-2.04,9.11-.88.18,1.85Z"/>
    <path class="cls-3" d="M107.4,40.33l-2.2-.39.36.02c.59.43,1,1.02,1.23,1.76.23.74.24,1.54.03,2.4-.21.83-.62,1.45-1.25,1.86-.63.41-1.34.53-2.12.35l-6.56-1.63.5-2.01,5.87,1.46c.48.1.9.06,1.27-.13.37-.19.63-.56.77-1.12.12-.5.1-1-.08-1.49-.18-.49-.49-.92-.93-1.28-.44-.36-.99-.62-1.65-.79l-4.16-1.04.5-2.02,8.87,2.21-.45,1.82Z"/>
    <rect class="cls-1" x="12.3" y="38.06" width="2.65" height="1.02" transform="translate(2.82 -.88) rotate(4.13)"/>
  </g>
</svg>