<svg width="111" height="111" viewBox="0 0 111 111" fill="none" xmlns="http://www.w3.org/2000/svg">
<g id="Fl&#195;&#168;che Droite" filter="url(#filter0_d_2340_1376)">
<path id="Ellipse 71" d="M68.5 46.9814C68.5 59.684 58.2025 69.9814 45.5 69.9814C32.7975 69.9814 22.5 59.684 22.5 46.9814C22.5 34.2789 32.7975 23.9814 45.5 23.9814C58.2025 23.9814 68.5 34.2789 68.5 46.9814Z" fill="white"/>
<path id="Vector" d="M85.5 45.9814C85.5 23.9014 67.58 5.98145 45.5 5.98145C23.42 5.98145 5.5 23.9014 5.5 45.9814C5.5 68.0614 23.42 85.9814 45.5 85.9814C67.58 85.9814 85.5 68.0614 85.5 45.9814ZM45.5 49.9814H29.5V41.9814H45.5V29.9814L61.5 45.9814L45.5 61.9814V49.9814Z" fill="#FD9830"/>
</g>
<defs>
<filter id="filter0_d_2340_1376" x="0.5" y="0.981445" width="110" height="110" filterUnits="userSpaceOnUse" color-interpolation-filters="sRGB">
<feFlood flood-opacity="0" result="BackgroundImageFix"/>
<feColorMatrix in="SourceAlpha" type="matrix" values="0 0 0 0 0 0 0 0 0 0 0 0 0 0 0 0 0 0 127 0" result="hardAlpha"/>
<feOffset dx="10" dy="10"/>
<feGaussianBlur stdDeviation="7.5"/>
<feComposite in2="hardAlpha" operator="out"/>
<feColorMatrix type="matrix" values="0 0 0 0 0.00784314 0 0 0 0 0.203922 0 0 0 0 0.211765 0 0 0 0.2 0"/>
<feBlend mode="normal" in2="BackgroundImageFix" result="effect1_dropShadow_2340_1376"/>
<feBlend mode="normal" in="SourceGraphic" in2="effect1_dropShadow_2340_1376" result="shape"/>
</filter>
</defs>
</svg>
